<?xml version="1.0" encoding="UTF-8" standalone="no"?>
<svg width="72px" height="72px" viewBox="0 0 72 72" version="1.1" xmlns="http://www.w3.org/2000/svg" xmlns:xlink="http://www.w3.org/1999/xlink" xmlns:sketch="http://www.bohemiancoding.com/sketch/ns">
    <!-- Generator: Sketch 3.1.1 (8761) - http://www.bohemiancoding.com/sketch -->
    <title>Fill 2 + Fill 7</title>
    <desc>Created with Sketch.</desc>
    <defs></defs>
    <g id="Pocket-Casts-Web-Main" stroke="none" stroke-width="1" fill="none" fill-rule="evenodd" sketch:type="MSPage">
        <g id="Pocket-Casts-Web-Main-2" sketch:type="MSArtboardGroup" transform="translate(-684.000000, -3461.000000)" fill="#F44336">
            <g id="Group" sketch:type="MSLayerGroup" transform="translate(364.000000, 3461.000000)">
                <g id="Fill-2-+-Fill-7" transform="translate(320.000000, 0.000000)" sketch:type="MSShapeGroup">
                    <path d="M9.73181515,35.8533615 C9.73181515,21.4264109 21.4264109,9.73181515 35.8533615,9.73181515 C50.280312,9.73181515 61.9749078,21.4264109 61.9749078,35.8533615 L71.7067229,35.8533615 C71.7067229,16.0518515 55.6548715,0 35.8533615,0 C16.0518515,0 0,16.0518515 0,35.8533615 C0,55.6548715 16.0518515,71.7067229 35.8533615,71.7067229 L35.8533615,61.9749078 C21.4264109,61.9749078 9.73181515,50.280312 9.73181515,35.8533615" id="Fill-2"></path>
                    <path d="M22.0985057,36.081302 C22.0985057,28.3584419 28.3584419,22.0985057 36.081302,22.0985057 C43.8034292,22.0985057 50.0640983,28.3584419 50.0640983,36.081302 L57.5040483,36.081302 C57.5040483,24.2496487 47.9129553,14.6585557 36.081302,14.6585557 C24.2496487,14.6585557 14.6585557,24.2496487 14.6585557,36.081302 C14.6585557,47.9129553 24.2496487,57.5040483 36.081302,57.5040483 L36.081302,50.0640983 C28.3584419,50.0640983 22.0985057,43.8034292 22.0985057,36.081302" id="Fill-3"></path>
                </g>
            </g>
        </g>
    </g>
</svg>